HIERARCHY
ROOT Bip001_Pelvis
{
  OFFSET 7.937 94.8971 -8.5489
  CHANNELS 6 Xposition Yposition Zposition Zrotation Xrotation Yrotation
  JOINT Bip001_Spine
  {
    OFFSET 1.44608e-005 10.4157 -0.0118244
    CHANNELS 3 Zrotation Xrotation Yrotation
    JOINT Bip001_L_Thigh
    {
      OFFSET 11.2582 -10.4157 0.0118432
      CHANNELS 3 Zrotation Xrotation Yrotation
      JOINT Bip001_L_Calf
      {
        OFFSET -0.720717 -44.8687 0.366937
        CHANNELS 3 Zrotation Xrotation Yrotation
        JOINT Bip001_L_Foot
        {
          OFFSET -0.664439 -41.3745 -3.62995
          CHANNELS 3 Zrotation Xrotation Yrotation
          JOINT Bip001_L_Toe0
          {
            OFFSET 0.0541047 -10.4146 13.4033
            CHANNELS 3 Zrotation Xrotation Yrotation
            End Site
            {
              OFFSET -1.04503e-005 0 7.70137
            }
          }
        }
      }
    }
    JOINT Bip001_R_Thigh
    {
      OFFSET -11.2582 -10.4156 0.0118122
      CHANNELS 3 Zrotation Xrotation Yrotation
      JOINT Bip001_R_Calf
      {
        OFFSET 0.72059 -44.8687 0.36676
        CHANNELS 3 Zrotation Xrotation Yrotation
        JOINT Bip001_R_Foot
        {
          OFFSET 0.664321 -41.3745 -3.62979
          CHANNELS 3 Zrotation Xrotation Yrotation
          JOINT Bip001_R_Toe0
          {
            OFFSET -0.05417 -10.4146 13.4033
            CHANNELS 3 Zrotation Xrotation Yrotation
            End Site
            {
              OFFSET -1.04873e-005 0 7.70137
            }
          }
        }
      }
    }
    JOINT Bip001_Spine1
    {
      OFFSET 1.90638e-005 14.8539 1.10727
      CHANNELS 3 Zrotation Xrotation Yrotation
      JOINT Bip001_Spine2
      {
        OFFSET 2.28934e-005 14.7848 -1.7233
        CHANNELS 3 Zrotation Xrotation Yrotation
        JOINT Bip001_Neck
        {
          OFFSET 2.24514e-005 15.6905 -0.498826
          CHANNELS 3 Zrotation Xrotation Yrotation
          JOINT Bip001_L_Clavicle
          {
            OFFSET 6.17691 -0.000591152 0.00852867
            CHANNELS 3 Zrotation Xrotation Yrotation
            JOINT Bip001_L_UpperArm
            {
              OFFSET 11.773 -0.0611878 0.00197697
              CHANNELS 3 Zrotation Xrotation Yrotation
              JOINT Bip001_L_Forearm
              {
                OFFSET 26.4515 0.0817568 -2.19579
                CHANNELS 3 Zrotation Xrotation Yrotation
                JOINT Bip001_L_Hand
                {
                  OFFSET 32.8677 0.156744 1.67112
                  CHANNELS 3 Zrotation Xrotation Yrotation
                  JOINT Bip001_L_Finger0
                  {
                    OFFSET 6.16268 -2.25226 6.01674
                    CHANNELS 3 Zrotation Xrotation Yrotation
                    End Site
                    {
                      OFFSET 4.30499 -1.46662 0.618148
                    }
                  }
                  JOINT Bip001_L_Finger1
                  {
                    OFFSET 11.2957 -0.718374 -0.201963
                    CHANNELS 3 Zrotation Xrotation Yrotation
                    End Site
                    {
                      OFFSET 6.31952 -0.405163 -0.0802303
                    }
                  }
                }
              }
            }
          }
          JOINT Bip001_R_Clavicle
          {
            OFFSET -6.17691 -0.000574027 0.00851165
            CHANNELS 3 Zrotation Xrotation Yrotation
            JOINT Bip001_R_UpperArm
            {
              OFFSET -11.773 -0.0611516 0.00194365
              CHANNELS 3 Zrotation Xrotation Yrotation
              JOINT Bip001_R_Forearm
              {
                OFFSET -26.4514 0.0822334 -2.19736
                CHANNELS 3 Zrotation Xrotation Yrotation
                JOINT Bip001_R_Hand
                {
                  OFFSET -32.8677 0.156817 1.67144
                  CHANNELS 3 Zrotation Xrotation Yrotation
                  JOINT Bip001_R_Finger0
                  {
                    OFFSET -6.1627 -2.25224 6.0167
                    CHANNELS 3 Zrotation Xrotation Yrotation
                    End Site
                    {
                      OFFSET -4.30499 -1.46662 0.618134
                    }
                  }
                  JOINT Bip001_R_Finger1
                  {
                    OFFSET -11.2958 -0.718344 -0.201994
                    CHANNELS 3 Zrotation Xrotation Yrotation
                    End Site
                    {
                      OFFSET -6.31952 -0.405146 -0.0802475
                    }
                  }
                }
              }
            }
          }
          JOINT Bip001_Head
          {
            OFFSET 1.11782e-005 11.4912 2.09908
            CHANNELS 3 Zrotation Xrotation Yrotation
            End Site
            {
              OFFSET 2.95144e-005 21.2823 -2.83069e-005
            }
          }
        }
      }
    }
  }
}
MOTION
Frames:	12
Frame Time:	0.04
6.78849 94.9794 -7.61339 0.404615 0.181252 6.44931 -0.2322 0.528688 0.106917 5.51608 -10.4836 10.6653 0.913775 17.5245 -5.71205 -4.09581 -6.89647 -2.9182 0.835246 -9.92246 0.26893 -7.37809 -7.00128 -0.754691 0.746163 19.1348 3.88131 -2.21097 -10.938 -16.1461 0.721988 -11.6136 -0.492797 -0.343431 1.05701 0.22555 -0.345847 1.057 0.225367 2.39596 -4.20247 -8.97508 -26.18 6.13901 -7.41415 -56.7283 32.4683 16.015 27.8557 8.00946 -43.6827 -3.4491 0.887376 -3.95322 4.41391e-032 1.59028e-015 -1.59028e-015 -4.41391e-032 -1.59028e-015 -1.59028e-015 9.07217 9.00372 21.2102 32.8666 -34.2987 41.4899 -40.0464 -0.64008 69.7326 -36.0788 7.08712 -7.10373 -7.95139e-016 0 -4.42296e-015 -7.95139e-016 3.97569e-016 -2.5345e-015 -5.67131 -1.29645 -6.91175 
6.35725 95.2979 -7.78599 0.608554 0.624745 8.28964 -0.246372 0.439131 0.403179 5.41407 -10.1351 10.4963 0.507503 15.0473 -5.07965 -4.22125 -4.87248 -4.89051 0.763433 -10.0548 -0.138821 -7.51055 -6.16789 -1.46778 1.11194 17.4362 3.0975 -2.26054 -10.1739 -16.849 0.428726 -11.5339 -0.493009 -0.411694 0.87676 0.815906 -0.411694 0.87676 0.815911 2.73854 -4.25745 -9.39871 -26.4174 6.10257 -7.57976 -57.742 32.8462 17.0191 28.5901 9.15402 -41.9265 -4.9552 0.85027 -3.58927 3.18055e-015 -3.18055e-015 1.59028e-015 3.18055e-015 0 3.18055e-015 10.1861 9.28116 20.3285 39.8456 -37.0932 46.5629 -28.3034 -1.02294 71.6322 -31.6904 7.74657 -3.98412 -6.36111e-015 -3.18055e-015 -3.57812e-015 -4.77083e-015 -6.36111e-015 -4.37326e-015 -6.642 -1.3206 -7.03135 
6.0248 95.5106 -7.85105 0.671541 0.773476 10.0636 -0.27377 0.351504 0.427751 5.44153 -9.71686 10.743 0.291305 13.2143 -5.70379 -4.20583 -3.41764 -5.93511 0.720563 -10.1225 -0.375791 -7.38963 -5.20591 -1.31934 1.46172 16.0487 1.44875 -2.2045 -9.64574 -17.2408 0.219757 -11.4894 -0.407368 -0.506458 0.701077 0.86298 -0.506724 0.701077 0.862965 4.40349 -3.62079 -9.58569 -27.1464 5.3676 -8.51502 -59.7992 31.093 19.1823 29.9378 11.1667 -40.9865 -5.10116 1.02279 -3.02851 6.36111e-015 6.36111e-015 -3.18055e-015 6.36111e-015 6.36111e-015 -3.18055e-015 7.92274 7.66995 18.187 42.7993 -35.2596 48.0464 -30.9305 -0.602799 70.5744 -27.6007 7.2468 -6.57498 3.18055e-015 1.59028e-015 1.59028e-015 -3.97252e-031 4.77083e-015 4.77083e-015 -7.82656 -1.21923 -6.51314 
5.78342 95.6519 -7.91684 0.743328 0.879849 11.1698 -0.178041 0.326825 0.134022 5.27035 -9.34264 10.2312 0.0684806 11.7306 -5.63979 -4.26726 -2.37951 -6.09924 0.70149 -10.1328 -0.477542 -7.39374 -4.70965 -1.24548 1.54234 15.2069 0.578835 -2.1594 -9.35946 -17.3753 0.0740575 -11.4741 -0.285219 -0.335223 0.653212 0.274018 -0.335226 0.653211 0.27402 3.15898 -3.3769 -8.57726 -26.7291 5.26069 -7.46367 -60.1973 31.299 20.7209 30.0504 11.719 -40.2678 -5.32905 1.16656 -3.03072 0 0 -0 -3.18055e-015 3.18056e-015 -0 7.19976 6.96009 17.5673 41.5772 -33.4596 47.8229 -31.6941 -0.33536 67.9063 -27.09 7.38861 -7.41202 -3.18055e-015 -3.18055e-015 -3.97569e-015 -3.18055e-015 -1.59028e-015 -1.59028e-015 -6.94777 -0.690462 -6.00647 
5.58246 95.7071 -7.95289 0.800478 0.860705 11.5022 -0.0936516 0.341774 0.00107955 5.25037 -9.04308 9.4607 -0.256227 10.9211 -5.47931 -4.29565 -1.91885 -5.66113 0.708079 -10.0968 -0.433826 -7.43879 -4.53071 -1.42973 1.55768 14.9289 0.283597 -1.95353 -9.37489 -17.2164 -0.222786 -11.4343 -0.127826 -0.202633 0.683522 0.00584889 -0.202733 0.683521 0.0057421 1.83724 -2.89353 -7.71049 -26.2501 4.98924 -6.89549 -60.4842 32.7361 21.9433 29.2694 11.2698 -38.8565 -6.84183 0.870228 -2.80691 -6.36111e-015 -9.54166e-015 7.95139e-016 -6.36111e-015 -9.54167e-015 7.95139e-016 8.26286 6.58006 17.4686 43.5392 -35.1588 45.9507 -33.8841 0.631303 73.1154 -28.2569 9.05074 -7.91441 3.31043e-032 1.59028e-015 -1.19271e-015 3.18055e-015 1.59028e-015 -2.38542e-015 -6.02687 -1.06788 -5.74132 
5.46698 95.7247 -8.03167 0.767812 0.692551 11.2709 -0.100286 0.385695 0.244405 5.32299 -8.89681 9.5998 -0.132636 10.7673 -5.57687 -4.40439 -1.81944 -5.70415 0.689244 -10.0755 -0.467463 -7.38776 -4.41405 -2.39853 1.39387 14.7985 0.507434 -1.53956 -9.39861 -16.5544 -0.570519 -11.3899 0.0488461 -0.259115 0.770826 0.489903 -0.259115 0.770813 0.489897 2.47264 -2.89921 -7.88247 -26.6695 5.07699 -7.59501 -61.0396 33.703 22.4844 27.2997 10.9752 -36.6786 -7.8666 0.63098 -2.82852 -0 0 7.95139e-016 4.41391e-032 -3.18056e-015 7.95139e-016 9.65393 6.75737 16.0499 45.0455 -37.7556 45.8463 -38.4352 2.12714 79.1259 -28.3747 8.85656 -8.79883 1.59028e-015 3.18055e-015 5.1684e-015 1.59028e-015 2.38542e-015 6.36111e-015 -6.62681 -1.1436 -5.61894 
5.42491 95.7753 -8.05193 0.70902 0.449016 10.6742 -0.0933263 0.409406 0.315816 5.46027 -8.45999 9.40065 -0.219766 10.4739 -5.1681 -4.39764 -1.74533 -5.40841 0.624805 -10.067 -0.454265 -7.33513 -4.12247 -2.74953 1.31717 14.3332 0.429954 -1.10378 -9.21867 -15.6941 -0.883483 -11.3595 0.256556 -0.28568 0.819843 0.63041 -0.28582 0.81985 0.630367 2.31296 -2.75941 -7.34775 -26.4295 5.09415 -7.73434 -61.5397 34.4831 22.7267 25.7287 10.808 -34.7267 -8.99302 0.453375 -2.61002 -1.59028e-015 -3.18055e-015 7.95139e-016 -0 -3.18056e-015 -0 12.1998 7.0228 15.0668 43.842 -39.3101 42.6321 -38.2033 2.09132 85.7163 -30.0773 10.1704 -8.19271 -1.59028e-015 -7.95139e-016 -1.59028e-015 -8.27608e-033 -2.38542e-015 -1.98785e-016 -6.3412 -0.975778 -5.18128 
5.41619 95.799 -8.04947 0.656226 0.319889 9.98326 0.0069054 0.407574 0.255076 5.50998 -8.14629 9.66107 -0.253523 10.3817 -5.01909 -4.4366 -1.8158 -5.14344 0.631888 -10.0606 -0.392101 -7.39433 -4.04529 -2.5963 1.29267 14.0813 0.29406 -0.762408 -9.12002 -15.0431 -1.12718 -11.3278 0.413007 -0.114852 0.8124 0.506257 -0.114853 0.812401 0.506268 1.09192 -2.52804 -6.38667 -26.0331 5.22433 -7.72852 -61.6732 35.2457 22.5507 24.319 10.5217 -32.7604 -9.64978 0.293071 -2.25418 -3.18055e-015 3.18055e-015 7.95139e-016 -3.18055e-015 -3.18056e-015 -0 14.9627 7.07027 14.22 40.0172 -37.8052 34.4682 -37.4703 -0.361202 92.3662 -31.2359 9.67481 -5.48803 -1.59028e-015 1.59028e-015 4.77083e-015 -0 0 3.57812e-015 -5.73189 -0.818601 -4.69755 
5.43829 95.8091 -8.05143 0.607345 0.160597 9.18936 0.0706956 0.417408 0.221141 5.57474 -7.84714 10.1041 -0.240529 10.4128 -4.91353 -4.4476 -1.97936 -4.92792 0.63566 -10.0415 -0.356378 -7.39951 -4.05824 -2.92884 1.06525 14.0147 0.572788 -0.483139 -9.01362 -14.2239 -1.22628 -11.3433 0.555079 -0.00230239 0.834811 0.436607 -0.00244817 0.834804 0.436606 0.0445291 -2.43024 -5.48189 -26.1131 5.52284 -7.93584 -60.6493 35.3268 21.3425 22.3374 10.8199 -30.5688 -9.64845 0.16548 -2.02555 -7.95139e-016 6.36111e-015 7.95139e-016 -2.38542e-015 -3.18056e-015 1.59028e-015 17.7059 7.15233 13.2414 35.4794 -33.3356 23.9426 -37.086 -2.83108 97.4727 -31.4726 8.36356 -0.909944 -3.18055e-015 0 -0 0 0 -1.59028e-015 -5.04813 -0.837934 -4.25101 
5.46844 95.836 -8.03419 0.647347 -0.23776 8.3623 -0.00173588 0.505379 0.163497 5.76255 -7.23521 9.16235 -0.641385 10.1791 -3.78683 -4.37296 -2.04061 -4.27925 0.644497 -10.022 -0.297505 -7.34074 -3.88407 -3.01675 0.93708 13.9054 0.699131 -0.242812 -8.87351 -13.4669 -1.31387 -11.3692 0.730565 -0.16341 1.01053 0.321428 -0.163421 1.01052 0.321526 -0.266209 -2.52171 -4.72251 -26.4832 5.85188 -8.04287 -59.4891 35.5245 20.0109 20.1907 10.0496 -28.7939 -9.13222 0.0493507 -1.63155 -7.95139e-016 -3.18055e-015 -1.59028e-015 -7.95139e-016 -3.18056e-015 -7.95139e-016 21.931 7.98865 13.0997 30.2452 -27.1304 12.1648 -36.0675 -3.81157 100.61 -30.6515 5.15765 3.65982 0 0 -0 0 3.18056e-015 -0 -4.42596 -0.793833 -3.72603 
5.46285 95.8217 -7.91688 0.723271 -0.901801 7.80756 -0.0759858 0.651116 0.138551 5.98269 -6.54996 9.61141 -0.726671 10.2842 -3.7155 -4.37706 -2.25599 -4.35385 0.664652 -10.0085 -0.222775 -7.25569 -3.47675 -3.44259 0.754848 14.0363 1.1862 -0.0962919 -8.95973 -12.9444 -1.3849 -11.3821 0.833915 -0.323252 1.30189 0.273516 -0.323221 1.30187 0.273655 -0.517559 -2.54821 -4.22375 -26.6382 6.20163 -8.61793 -58.267 35.5799 18.0405 17.8718 9.35243 -26.5529 -8.34292 0.0329427 -1.86517 2.38542e-015 -3.18055e-015 7.95139e-016 1.59028e-015 -3.18056e-015 7.95139e-016 26.3642 8.87888 13.2241 27.1468 -19.6722 1.45803 -33.9897 -2.53136 100.84 -25.783 0.859536 3.08168 -6.36111e-015 -1.59028e-015 -3.18055e-015 -6.36111e-015 -3.18056e-015 -0 -3.9453 -0.803996 -3.41185 
5.49449 95.7759 -7.97666 0.688427 -1.43099 7.32788 -0.098399 0.767614 0.149988 6.1686 -6.35351 10.0797 -0.67576 10.8717 -3.85234 -4.38331 -2.61037 -4.37409 0.685054 -9.99328 -0.130688 -7.1792 -3.37412 -3.10655 0.791546 14.3347 1.28981 -0.111584 -9.00354 -12.8709 -1.37592 -11.3852 0.830883 -0.367059 1.53476 0.29782 -0.367782 1.53476 0.297926 -0.672006 -2.62161 -3.88939 -26.7718 6.67233 -9.52844 -57.353 35.7495 15.8735 15.908 8.22147 -24.6223 -7.6162 -0.0567864 -1.8002 1.59028e-015 3.18055e-015 -7.95139e-016 7.95139e-016 3.18056e-015 -7.95139e-016 28.7064 9.31374 13.0797 30.4179 -11.4097 -5.75829 -24.0094 2.25546 95.6632 -18.5785 3.28838 0.760977 1.59028e-015 8.34896e-015 -0 3.18055e-015 8.34896e-015 -1.59028e-015 -3.7471 -0.674289 -3.16555 
